<svg width="382" height="97" viewBox="0 0 382 97" fill="none" xmlns="http://www.w3.org/2000/svg">
<path fill-rule="evenodd" clip-rule="evenodd" d="M374.696 72.1263L381.365 79.5505L374.934 85L368.026 77.4968C363.579 80.0775 358.683 81.367 353.337 81.367C348.308 81.367 343.651 80.2341 339.363 77.9708C335.075 75.7075 331.568 72.3113 328.842 67.7822C326.116 63.2543 324.753 58.0416 324.753 52.144C324.753 46.2478 326.116 41.0472 328.842 36.5452C331.568 32.0432 335.075 28.6608 339.363 26.3962C343.651 24.1329 348.308 23 353.337 23C358.365 23 363.024 24.1329 367.311 26.3962C371.599 28.6608 375.118 32.0432 377.871 36.5452C380.623 41.0472 382 46.2478 382 52.144C382 60.0953 379.565 66.7558 374.696 72.1263ZM366.636 37.2559C362.905 33.7018 358.47 31.925 353.337 31.925C348.202 31.925 343.782 33.7018 340.077 37.2559C336.372 40.8104 334.52 45.7738 334.52 52.144C334.52 58.5156 336.372 63.4777 340.077 67.0322C343.782 70.5863 348.202 72.3631 353.337 72.3631C356.46 72.3631 359.265 71.7584 361.753 70.5466L352.464 60.279L358.974 54.7506L368.344 65.0971C370.936 61.5698 372.234 57.252 372.234 52.144C372.234 45.7738 370.368 40.8104 366.636 37.2559ZM306.968 56.251H280.528V80.1823H271V24.1847H280.528V47.3264H306.968V24.1847H316.575V80.1823H306.968V56.251Z" fill="#11B599"/>
<path fill-rule="evenodd" clip-rule="evenodd" d="M253.462 79.8184C253.198 79.0309 253.067 77.4037 253.067 74.9344C250.537 78.9789 246.585 81 241.209 81C237.308 81 234.16 79.858 231.762 77.5736C229.363 75.2893 228.165 72.5713 228.165 69.4207C228.165 66.1651 229.232 63.5521 231.367 61.583C233.501 59.6134 236.308 58.3665 239.786 57.8409L249.667 56.3445C251.565 56.0821 252.513 55.1629 252.513 53.5874C252.513 51.8544 251.907 50.4501 250.695 49.373C249.482 48.2973 247.664 47.7584 245.24 47.7584C242.921 47.7584 241.077 48.4018 239.707 49.6883C238.335 50.9757 237.545 52.642 237.335 54.6902L228.956 52.7998C229.324 49.3339 230.984 46.3798 233.936 43.938C236.887 41.4958 240.628 40.2751 245.161 40.2751C250.747 40.2751 254.872 41.614 257.533 44.2924C260.194 46.9704 261.526 50.4105 261.526 54.6115V73.6741C261.526 76.1951 261.684 78.2429 262 79.8184H253.462ZM252.513 62.1735L242.474 63.6703C239.047 64.2489 237.335 65.9818 237.335 68.8692C237.335 70.2353 237.836 71.4035 238.837 72.3743C239.838 73.3468 241.209 73.832 242.948 73.832C245.794 73.832 248.099 73.0578 249.865 71.508C251.63 69.9596 252.513 67.4253 252.513 63.9065V62.1735ZM200.997 79.8184L185.344 41.4566H195.463L205.661 68.8692L215.622 41.4566H225.267L210.167 79.8184H200.997ZM176.016 33.8942C174.382 33.8942 172.985 33.317 171.826 32.1612C170.666 31.0068 170.087 29.6149 170.087 27.9865C170.087 26.3593 170.666 24.9537 171.826 23.7721C172.985 22.5906 174.382 22 176.016 22C177.702 22 179.125 22.5785 180.285 23.733C181.444 24.8887 182.024 26.3064 182.024 27.9865C182.024 29.6149 181.444 31.0068 180.285 32.1612C179.125 33.317 177.702 33.8942 176.016 33.8942ZM142.945 81C137.463 81 133.103 79.3595 129.862 76.0768C126.621 72.7954 125 68.4236 125 62.9611V59.3377L134.249 57.4473V62.6462C134.249 65.7969 135.04 68.1604 136.621 69.7355C138.202 71.311 140.283 72.0986 142.866 72.0986C145.396 72.0986 147.398 71.2986 148.874 69.6964C150.349 68.095 151.088 65.876 151.088 63.0402V23.9691H160.574V62.8036C160.574 67.898 158.94 72.2048 155.673 75.7224C152.404 79.2412 148.163 81 142.945 81ZM180.601 79.8184H171.51V41.4566H180.601V79.8184Z" fill="black"/>
<path fill-rule="evenodd" clip-rule="evenodd" d="M98.944 54.8003C97.8625 59.5162 94.4322 59.6495 92.1353 59.1854C89.8383 58.7212 87.1313 58.1924 87.1313 58.1924C81.08 73.0915 64.6408 91.978 49.5608 96.4183C34.4812 100.858 30.4664 78.9552 45.2954 62.3294C60.1239 45.7041 79.7487 46.9399 79.7487 46.9399C83.5963 33.6148 75.4383 29.0041 72.4477 28.7371C69.4571 28.4705 63.8227 29.165 60.8813 35.2737C57.9399 41.3824 54.5948 46.6979 50.0531 43.9614C45.5118 41.2246 49.0686 34.7772 49.0686 34.7772C50.1322 32.7007 58.8512 13.3217 77.5338 19.0568C96.216 24.792 90.5769 47.5192 90.5769 47.5192C92.731 47.6805 95.3346 48.4293 95.3346 48.4293C99.7394 49.6474 98.944 54.8003 98.944 54.8003ZM48.0025 80.7803C48.0025 80.7803 46.9252 85.2369 51.3655 83.097C55.8063 80.9571 67.6883 71.194 75.1548 57.7787C75.1548 57.7787 52.4146 60.4945 48.0025 80.7803Z" fill="#11B599"/>
<path fill-rule="evenodd" clip-rule="evenodd" d="M48.9769 25.5327C48.5319 30.8365 46.2551 29.5153 37.0449 42.9938C27.8347 56.4723 28.8082 62.5099 29.8692 74.4567C30.9301 86.4036 26.8464 85.5903 21.1914 80.387C15.5364 75.1837 4.66065 65.133 0.915755 50.5712C-3.22281 34.479 8.00795 23.3089 8.00795 23.3089C13.9565 17.0695 18.2739 22.0401 17.8537 26.1094C17.4265 30.2478 13.9004 35.397 16.8527 37.3933C19.8046 39.389 24.3334 34.8577 33.8742 26.6856C43.415 18.5135 49.4219 20.2289 48.9769 25.5327ZM29.7857 21.4144C23.7949 21.4144 18.9386 16.6208 18.9386 10.7072C18.9386 4.79369 23.7949 0 29.7857 0C35.7764 0 40.6327 4.79369 40.6327 10.7072C40.6327 16.6208 35.7764 21.4144 29.7857 21.4144Z" fill="#006A61"/>
</svg>
